<svg id="Capa_1" enable-background="new 0 0 512 512" height="512" viewBox="0 0 512 512" width="512" xmlns="http://www.w3.org/2000/svg"><g><path d="m478.79 164.952-20.648-36.404c-44.152-64.341-118.213-106.552-202.142-106.552-119.267 0-218.612 85.227-240.498 198.097l337.062 272.13c87.294-37.476 148.438-124.205 148.438-225.224 0-36.421-7.958-70.979-22.212-102.047z" fill="#45304c"/><path d="m277.544 54.861v-27.388c-.142.01-.28.033-.424.039-3.618.146-6.967-1.08-9.57-3.201-2.432 6.699-8.713 11.608-16.275 11.913-2.375.096-4.655-.283-6.766-1.031-.478 9.144-6.647 16.879-15.145 19.56l20.793 15.933c7.357-8.147 16.759-13.78 27.387-15.825z" fill="#e6e9ed"/><path d="m405.481 385.021c-4.337-1.378-9.024.238-11.886 3.776-4.855 6.003-13.561 13.422-25.574 10.651-.995 32.663-18.527 61.49-48.043 84.891-14.365 11.389-26.84 17.352-45.323 26.959 27.485-2.069 53.7-8.683 77.908-19.076 3.044-2.034 6.177-3.945 9.394-5.721 56.406-31.129 68.21-80.069 70.495-103.951.129-1.348.295-2.689.48-4.028-5.233 6.648-13.712 10.863-27.451 6.499z" fill="#3f57a0"/><path d="m427.711 274.429c-5.788-8.227-10.023-17.403-13.051-26.995-8.023-25.412-26.088-46.713-47.517-65.426.186 3.389-.226 6.995-1.943 10.067-2.324 4.158-6.69 6.709-12.977 7.581-3.216.446-5.803 2.867-6.593 6.166-.946 3.961-3.119 9.274-8.093 12.089-4.422 2.504-10.315 2.619-17.518.345-3.682-1.166-7.755.511-9.472 3.892-2.648 5.21-6.9 7.726-11.8 8.569 14.123 22.006 16.852 42.627-8.726 70.544 28.775 9.701 63.725 29.106 74.167 67.237 3.109 11.352 4.311 22.348 3.769 32.934 12.045 2.811 20.772-4.623 25.636-10.636 2.862-3.538 7.548-5.154 11.886-3.776 13.484 4.284 21.905.305 27.161-6.129.983-8.678 3.129-17.173 6.247-25.338 13.895-36.376-.418-65.832-11.176-81.124z" fill="#27a6ff"/><path d="m310.994 222.376c1.637-3.221 5.431-4.73 8.876-3.642 18.772 5.929 24.5-5.489 26.247-12.794.718-3.003 3.115-5.363 6.174-5.787 12.924-1.793 15.659-10.197 15.386-17.678-14.019-12.303-29.507-23.488-44.592-33.974-39.523-27.474-1.749-44.645 3.627-46.874-.182-.111-.355-.238-.515-.383l-1.385-1.259c-1.578-1.435-1.805-3.835-.524-5.54l11.254-14.975c.662-.881 1.709-1.325 2.757-1.244-1.541-3.886-11.871-25.226-52.776-25.226-45 0-74 62.333-34 117.667 17.422 24.1 36.238 42.744 47.527 60.522 6.643-1.272 10.131-5.245 11.944-8.813z" fill="#02c0fc"/><path d="m366.19 368.5c-6.865-25.068-24.325-42.036-43.656-53.482-22.398 7.427-74.12 29.312-39.01 64.422 23.902 23.902-7.467 47.362-34.665 72.134 7.184 4.149 17.13 6.351 30.269 2.019 6.907-2.277 14.597-.719 19.709 4.453 7.883 7.976 23.229 15.269 49.748-.48 19.5-25.737 26.693-55.88 17.605-89.066z" fill="#fffbb3"/><path d="m323.257 315.447c-33.395-20.062-72.734-23.447-72.734-23.447l-5.024 1.269-37.087 24.136c-1.013 12.35-4.817 30.529-17.424 44.568.219 17.275-2.265 53.161-25.005 69.304 11.11 9.176 29.035 16.978 55.133 8.851 6.952-2.165 14.525-.332 19.548 4.941 2.444 2.565 5.574 5.169 9.443 7.189 27.365-25.025 59.536-48.696 35.414-72.818-34.457-34.459 14.725-56.178 37.736-63.993z" fill="#fef156"/><path d="m298.836 456.047c-5.112-5.172-12.803-6.73-19.709-4.453-12.321 4.061-21.83 2.376-28.891-1.27-20.623 18.666-39.434 38.063-30.879 58.946 11.954 1.793 24.188 2.73 36.643 2.73 7.606 0 15.125-.365 22.554-1.043 31.804-15.201 56.868-34.495 72.668-57.01-28.146 17.846-44.245 10.337-52.386 2.1z" fill="#ffc242"/><path d="m251.535 450.958c-4.534-2.093-8.132-5.016-10.869-7.889-5.023-5.272-12.596-7.105-19.548-4.941-25.11 7.819-42.653.891-53.84-7.816-1.998 1.537-4.148 2.93-6.49 4.124-.338 11.271-3.756 32.416-22.842 47.283 25.43 14.012 53.615 23.637 83.536 27.861-8.771-20.765 9.606-40.059 30.053-58.622z" fill="#fea53d"/><path d="m148.857 438.667c-22.807 3.923-44.861 4.112-64.823 2.347l1.45 1.884c15.985 15.499 34.063 28.851 53.789 39.561 19.379-15.314 22.374-37.125 22.538-48.037-3.825 1.952-8.12 3.413-12.954 4.245z" fill="#00b7a0"/><path d="m191.952 361.038c-11.841 13.161-31.432 22.668-63.762 20.279-15.938-1.178-30.414-3.047-43.456-5.324.465.73.939 1.461 1.426 2.196-3.488 2.361-16.063 11.912-19.174 28.715-.682 3.684-.838 7.455-.505 11.299l18.376 23.881c19.745 1.687 41.506 1.451 64-2.417 40.934-7.041 43.602-58.789 43.095-78.629z" fill="#95db76"/><path d="m42.096 386.513 25.544 33.196c-3.315-27.229 19.916-41.231 19.916-41.231-.511-.758-.987-1.503-1.471-2.251-23.05-3.943-41.677-9.172-55.961-14.173 3.544 8.411 7.549 16.579 11.975 24.478z" fill="#3ecd8d"/><path d="m208.251 318.161c-18.352 11.943-41.549 14.155-61.585 5.324-14.701-6.48-22.255-15.977-26.124-23.658-2.926-5.808-7.379-10.687-12.908-13.932-10.85 5.138-27.834 15.727-34.296 33.713-6.072 16.901-1.759 36.605 12.822 58.58-.016.011-.04.028-.057.04 12.687 2.17 26.706 3.951 42.087 5.088 67.839 5.013 79.617-42.339 81.305-65.965z" fill="#baee63"/><path d="m108.624 286.498c-1.786-1.139-3.691-2.107-5.705-2.869-19.622-7.432-25.276-23.224-26.517-35.398-.305-2.988.835-5.718 2.812-7.979-20.514-8.379-46.068-15.609-63.712-20.16-2.944 15.184-4.504 30.861-4.504 46.905 0 34.621 7.196 67.557 20.15 97.415 14.454 4.997 33.23 10.187 56.408 14.064-38.151-56.628 1.989-83.166 21.068-91.978z" fill="#95db76"/><path d="m81.523 304.667c-29.889 12.052-41.648-7.442-45.87-19.162-4.065 4.403-6.785 9.642-7.691 15.491-3.159 20.389 16.835 40.412 44.656 44.722s52.936-8.725 56.094-29.114c.625-4.034.331-8.05-.738-11.936h-46.451z" fill="#ffd402"/><path d="m128.234 305.667c-3.863-16.181-21.389-30.255-44.178-33.785-20.006-3.099-38.611 2.77-48.66 13.893 3.991 11.615 15.609 32.198 46.127 19.892z" fill="#fef156"/><ellipse cx="102.221" cy="312.499" fill="#5071b7" rx="19.646" ry="26.807" transform="matrix(.153 -.988 .988 .153 -222.243 365.677)"/><path d="m80.837 372.265c-15.859 0-29.932 5.6-38.741 14.248 11.691 20.878 26.345 39.868 43.4 56.402 24.497-1.718 43.657-16.838 43.657-35.241 0-19.556-21.632-35.409-48.316-35.409z" fill="#ffd402"/><ellipse cx="103.745" cy="407.673" fill="#3f57a0" rx="25.408" ry="18.62"/><path d="m169.275 264.803c-3.064-.24-6.096-.69-9.081-1.332-14.882 3.573-40.372 14.559-34.528 47.548 4.448 5.214 10.834 10.427 19.999 14.466 20.036 8.831 43.233 6.619 61.585-5.324l43.273-28.161s-42.131-24.14-81.248-27.197z" fill="#3ecd8d"/><ellipse cx="223.814" cy="35.035" fill="#ffc242" rx="21.729" ry="21.728" transform="matrix(.707 -.707 .707 .707 40.78 168.522)"/><ellipse cx="251.545" cy="19.147" fill="#ffc242" rx="18.092" ry="18.092" transform="matrix(.117 -.993 .993 .117 202.992 266.703)"/><ellipse cx="277.544" cy="14.262" fill="#fef156" rx="14.262" ry="14.262" transform="matrix(.524 -.852 .852 .524 119.881 243.121)"/><path d="m136.837 253.803c-10.942-7.03-27.047-15.337-45.645-18.496-8.875-1.507-16.702 5.969-15.789 14.924 1.242 12.174 6.895 27.966 26.517 35.398 7.728 2.927 13.904 8.819 17.622 16.199 1.636 3.247 3.941 6.818 7.155 10.349-6.218-34.585 21.93-45.064 36.421-48.141-9.339-1.589-18.273-5.088-26.281-10.233z" fill="#00b7a0"/><g><path d="m304.932 90.312c-3.192 0-6.208-1.923-7.447-5.074-.927-2.358-3.156-3.882-5.679-3.882-2.522 0-4.752 1.523-5.679 3.882-1.618 4.111-6.266 6.135-10.373 4.517-4.112-1.617-6.134-6.261-4.518-10.373 3.352-8.52 11.425-14.025 20.569-14.025 9.145 0 17.218 5.505 20.569 14.025 1.616 4.112-.405 8.756-4.518 10.373-.959.378-1.95.557-2.924.557z" fill="#1d2e79"/></g><path d="m180.189 170.133h-67.671c-12.095 0-21.991-9.896-21.991-21.991 0-12.095 9.896-21.991 21.991-21.991h67.671c12.095 0 21.991 9.896 21.991 21.991 0 12.094-9.896 21.991-21.991 21.991z" fill="#543e5b"/><path d="m220.181 188.641c0-12.096-9.896-21.992-21.991-21.992h-35.172c-12.096 0-21.992 9.896-21.992 21.991 0 12.095 9.896 21.991 21.992 21.991h35.172c12.095.002 21.991-9.895 21.991-21.99z" fill="#6c5475"/><path d="m478.79 164.952c-5.856-12.763-12.777-24.934-20.648-36.404h-31.092c-12.095 0-21.992 9.896-21.992 21.991 0 12.095 9.896 21.991 21.992 21.991h35.172c6.593.001 12.529-2.944 16.568-7.578z" fill="#6c5475"/><path d="m335.243 79.244-11.253 14.974c-1.398 1.86-1.15 4.478.571 6.042l1.385 1.259c.684.622 1.57.969 2.495.978 5.703.059 27.159.928 37.221 10.461 1.728 1.637 4.578.55 4.819-1.819.62-6.098.151-14.838-6.456-19.14-8.092-5.269-19.301-11.176-24.349-13.775-1.53-.786-3.401-.354-4.433 1.02z" fill="#e6e9ed"/></g></svg>